inDegrees=yes
name=IK-live
DataType=double
version=3
OpenSimVersion=4.1
endheader
time	pelvis_tilt	pelvis_list	pelvis_rotation	pelvis_tx	pelvis_ty	pelvis_tz	hip_flexion_r	hip_adduction_r	hip_rotation_r	knee_angle_r	ankle_angle_r	subtalar_angle_r	mtp_angle_r	hip_flexion_l	hip_adduction_l	hip_rotation_l	knee_angle_l	ankle_angle_l	subtalar_angle_l	mtp_angle_l	lumbar_extension	lumbar_bending	lumbar_rotation	neck_flex	neck_latbend	neck_rot	arm_flex_r	arm_add_r	arm_rot_r	elbow_flex_r	pro_sup_r	wrist_flex_r	wrist_dev_r	arm_flex_l	arm_add_l	arm_rot_l	elbow_flex_l	pro_sup_l	wrist_flex_l	wrist_dev_l
12.3003886	20.41352718156211	20.7362972635562	-140.6373672868918	0.2341366603171506	0.04326292228651554	-1.326684523481465	-22.57117169827992	-1.591976316804377	-3.241458145969817	5.899560354604904	2.451982624139334	1.987972377786656	0	-24.74788768789517	-3.395140484746916	-11.58000132048591	9.793848132074926	-0.4439473045988533	4.250290820099795	0	-21.37711699760957	1.659277491615732	3.206407148933037	0	0	0	0.7731060743743329	-15.17653358479396	33.32060301107202	6.883281051517996	24.85045698484904	0	0.001598428976399942	5.864720012647649	-13.22948051581978	43.91260019331292	6.694509494573229	33.46845128593839	0	0.001598428976399942
12.4753083	21.32423543022735	21.96857497735094	-140.964204499753	0.2341366603171506	0.04326292228651554	-1.326684523481465	-22.57117169827992	-1.591976316804377	-3.241458145969817	5.899560354604904	2.451982624139334	1.987972377786656	0	-24.74788768789517	-3.395140484746916	-11.58000132048591	9.793848132074926	-0.4439473045988533	4.250290820099795	0	-21.37711699760957	1.659277491615732	3.206407148933037	0	0	0	0.7732561960444596	-15.1765329266835	33.32040718032178	6.886108626523453	24.8509674973115	0	0.001832635451341583	5.864856640539042	-13.2294871181039	43.91230796729468	6.697420671877803	33.46870137326275	0	0.001832635451341583
12.650156	14.44755167922322	13.77781742180737	-135.9387666920766	0.2341366603171506	0.04326292228651554	-1.326684523481465	-22.57117169827992	-1.591976316804377	-3.241458145969817	5.899560354604904	2.451982624139334	1.987972377786656	0	-24.74788768789517	-3.395140484746916	-11.58000132048591	9.793848132074926	-0.4439473045988533	4.250290820099795	0	-21.37711699760957	1.659277491615732	3.206407148933037	0	0	0	0.7729499071185849	-15.17653426831919	33.32080600256273	6.880394587890367	24.84993074059906	0	0.001357417547482584	5.864577852502753	-13.22947365858231	43.91290284843998	6.691538670042619	33.46819318288367	0	0.001357417547482584
12.8250565	-4.226224466753471	-9.472186514811396	-126.7390583792975	0.2341366603171506	0.04326292228651554	-1.326684523481465	-22.57117169827992	-1.591976316804377	-3.241458145969817	5.899560354604904	2.451982624139334	1.987972377786656	0	-24.74788768789517	-3.395140484746916	-11.58000132048591	9.793848132074926	-0.4439473045988533	4.250290820099795	0	-21.37711699760957	1.659277491615732	3.206407148933037	0	0	0	0.7725796602720145	-15.176535893147	33.32129011115694	6.873345523655574	24.84866462905964	0	0.0007760639683388468	5.864240933996744	-13.22945735799418	43.91362563565846	6.684279835648224	33.46757335496582	0	0.0007760639683388468
12.9999504	-9.928782502189023	-11.49127755685828	-126.2062347612381	0.2341366603171506	0.04326292228651554	-1.326684523481465	-22.57117169827992	-1.591976316804377	-3.241458145969817	5.899560354604904	2.451982624139334	1.987972377786656	0	-24.74788768789517	-3.395140484746916	-11.58000132048591	9.793848132074926	-0.4439473045988533	4.250290820099795	0	-21.37711699760957	1.659277491615732	3.206407148933037	0	0	0	0.7727845649133338	-15.17653499919518	33.32102558112811	6.877088844293474	24.84934584800975	0	0.001087780082254812	5.864427543687589	-13.22946632623453	43.91323176817284	6.688133656013251	33.46790777984273	0	0.001087780082254812
13.1528377	-9.700675861535904	-11.68453875558377	-124.9551004571399	0.2341366603171506	0.04326292228651554	-1.326684523481465	-22.57117169827992	-1.591976316804377	-3.241458145969817	5.899560354604904	2.451982624139334	1.987972377786656	0	-24.74788768789517	-3.395140484746916	-11.58000132048591	9.793848132074926	-0.4439473045988533	4.250290820099795	0	-21.37711699760957	1.659277491615732	3.206407148933037	0	0	0	0.772785726102576	-15.1765349941586	33.3210241011369	6.877109006740398	24.84934959417809	0	0.001089486798517883	5.864428602030933	-13.22946637676179	43.91322957091085	6.688154401775842	33.46790962508867	0	0.001089486798517883
13.325746	-10.54906537521519	-11.46261246583417	-122.4237327598354	0.2341366603171506	0.04326292228651554	-1.326684523481465	-22.57117169827992	-1.591976316804377	-3.241458145969817	5.899560354604904	2.451982624139334	1.987972377786656	0	-24.74788768789517	-3.395140484746916	-11.58000132048591	9.793848132074926	-0.4439473045988533	4.250290820099795	0	-21.37711699760957	1.659277491615732	3.206407148933037	0	0	0	0.7728265499798602	-15.17653481674871	33.3209718415229	6.877836491394779	24.84948285066172	0	0.001150342791335947	5.864465800833887	-13.22946815655313	43.91315190045218	6.688903311550945	33.46797515553181	0	0.001150342791335947
13.5006292	-27.50855278481167	-3.50244713705677	-120.5629082187169	0.2341366603171506	0.04326292228651554	-1.326684523481465	-22.57117169827992	-1.591976316804377	-3.241458145969817	5.899560354604904	2.451982624139334	1.987972377786656	0	-24.74788768789517	-3.395140484746916	-11.58000132048591	9.793848132074926	-0.4439473045988533	4.250290820099795	0	-21.37711699760957	1.659277491615732	3.206407148933037	0	0	0	0.7730260012440161	-15.17653395217024	33.32071794467721	6.88130924481876	24.85012518636491	0	0.001443075644138497	5.864647602638134	-13.22947683005443	43.91277503263088	6.692477445016658	33.46829152633975	0	0.001443075644138497
13.6755738	-43.31794253678695	1.550444667883289	-114.983474425563	0.2341366603171506	0.04326292228651554	-1.326684523481465	-22.57117169827992	-1.591976316804377	-3.241458145969817	5.899560354604904	2.451982624139334	1.987972377786656	0	-24.74788768789517	-3.395140484746916	-11.58000132048591	9.793848132074926	-0.4439473045988533	4.250290820099795	0	-21.37711699760957	1.659277491615732	3.206407148933037	0	0	0	0.7753115587541193	-15.17652395323294	33.31775289198696	6.92114405599939	24.85772400225839	0	0.004902177070511128	5.866728199265342	-13.22957714095121	43.90835862097931	6.733398636977182	33.47203145666022	0	0.004902177070511128
13.8504152	-67.25200983897473	7.603218540892223	-106.1775799492351	0.2341366603171506	0.04326292228651554	-1.326684523481465	-22.57117169827992	-1.591976316804377	-3.241458145969817	5.899560354604904	2.451982624139334	1.987972377786656	0	-24.74788768789517	-3.395140484746916	-11.58000132048591	9.793848132074926	-0.4439473045988533	4.250290820099795	0	-21.37711699760957	1.659277491615732	3.206407148933037	0	0	0	0.7755071793184012	-15.1765230886828	33.31749318333814	6.925019992500604	24.85841617674265	0	0.00522142954320458	5.866906041377684	-13.22958581435273	43.9079695935048	6.737388089228396	33.47236919915621	0	0.00522142954320458
